<svg width="19" height="20" viewBox="0 0 19 20" fill="none" xmlns="http://www.w3.org/2000/svg">
<path d="M1.74805 4.61826L4.39436 1.08984H14.9796L17.6259 4.61826M1.74805 4.61826V16.9677C1.74805 17.4356 1.93392 17.8843 2.26477 18.2152C2.59562 18.546 3.04436 18.7319 3.51225 18.7319H15.8617C16.3296 18.7319 16.7783 18.546 17.1092 18.2152C17.44 17.8843 17.6259 17.4356 17.6259 16.9677V4.61826M1.74805 4.61826H17.6259M13.2154 8.14667C13.2154 9.08247 12.8437 9.97993 12.1819 10.6416C11.5202 11.3033 10.6228 11.6751 9.68698 11.6751C8.75118 11.6751 7.85372 11.3033 7.19201 10.6416C6.53031 9.97993 6.15856 9.08247 6.15856 8.14667" stroke="url(#paint0_linear_1767_348)" stroke-width="1.76421" stroke-linecap="round" stroke-linejoin="round"/>
<defs>
<linearGradient id="paint0_linear_1767_348" x1="16.6081" y1="0.139918" x2="1.54448" y2="18.8677" gradientUnits="userSpaceOnUse">
<stop stop-color="#E61284"/>
<stop offset="0.515" stop-color="#9DC547"/>
<stop offset="1" stop-color="#EB6363"/>
</linearGradient>
</defs>
</svg>
