<svg width="50" height="50" viewBox="0 0 50 50" fill="none" xmlns="http://www.w3.org/2000/svg">
<path fill-rule="evenodd" clip-rule="evenodd" d="M18.1758 0.0737121C12.3129 0.20005 10.1001 0.574595 7.44555 1.88997C6.17943 2.51739 5.40446 3.07834 4.3445 4.13475C2.68305 5.79057 1.93815 6.9312 1.21598 8.92522C0.419703 11.1239 0.170903 13.1362 0.0331829 18.4925C-0.0171844 20.4514 -0.00809856 29.7146 0.0461451 31.6893C0.176335 36.4299 0.319956 37.971 0.791631 39.6888C1.33399 41.6638 2.20656 43.4114 3.3435 44.7996C3.9288 45.5142 4.69717 46.2544 5.41056 46.7908C5.4252 46.8018 5.4752 46.7997 5.52166 46.7862C5.72343 46.7273 6.52849 46.571 7.02582 46.4941C8.61913 46.2478 10.2364 46.2043 11.7663 46.3665C12.1047 46.4024 12.5518 46.4659 12.7909 46.5119C12.8588 46.525 13.0088 46.5522 13.1242 46.5722C13.3895 46.6183 13.9323 46.7468 14.1365 46.8117C14.1704 46.8225 14.2816 46.8558 14.3834 46.8858C15.1021 47.0968 15.827 47.3952 16.4573 47.7394C16.7306 47.8886 17.1397 48.14 17.2598 48.2325C17.3258 48.2833 17.406 48.3436 17.5646 48.4618C17.8983 48.7103 18.3434 49.1445 18.5815 49.4536C18.6286 49.5147 18.6733 49.5703 18.6809 49.5771C18.6885 49.5839 18.7469 49.6631 18.8106 49.7531L18.9265 49.9169L20.13 49.9357C21.5875 49.9585 28.601 49.9336 30.5059 49.8988C34.4543 49.8268 35.7297 49.783 36.6907 49.6864C39.0218 49.4523 40.821 48.9388 42.8261 47.9354C43.9564 47.3698 44.293 47.1163 45.5137 45.9113C46.5478 44.8906 47.0963 44.2673 47.4806 43.6762C47.7289 43.2944 47.7966 43.1719 48.1323 42.4978C49.2299 40.2939 49.5278 38.9809 49.7389 35.4174C49.8206 34.0382 49.952 29.8984 49.9669 28.2327L49.9724 27.6154L49.9862 28.1957C49.9937 28.5148 50 26.9926 50 24.8131C50 22.6336 49.9942 21.0726 49.987 21.3442C49.9763 21.7454 49.9703 21.595 49.9549 20.5418C49.9104 17.4948 49.8141 14.9387 49.6768 13.1595C49.6046 12.2244 49.5518 11.8389 49.4047 11.172C48.8571 8.68894 47.9178 6.68368 46.5076 4.98719C46.2215 4.64309 45.4978 3.91197 45.1593 3.6252C44.3017 2.8986 43.5377 2.40419 42.4187 1.8516C41.2291 1.26411 40.5372 0.995557 39.6247 0.767201C38.1065 0.387273 36.2986 0.2319 32.4193 0.147979C28.9941 0.0739097 20.2771 0.0284556 18.1758 0.0737121ZM19.2103 4.48414C16.942 4.50566 14.8706 4.56541 14.1488 4.6301C10.7224 4.93729 8.98666 5.6494 7.22331 7.47139C6.20239 8.52626 5.68452 9.35836 5.26578 10.6167C5.04917 11.2676 4.79786 12.3288 4.7425 12.8262C4.54441 14.6067 4.38418 23.7955 4.43573 30.4177C4.4601 33.5488 4.49469 34.7042 4.59421 35.7137C4.88822 38.6954 5.55909 40.6734 6.76643 42.1181C7.81434 43.372 9.44935 44.4112 11.0873 44.8644C11.1416 44.8794 11.2138 44.9005 11.2478 44.9112C11.3075 44.93 11.3476 44.9398 11.6922 45.0199C12.5353 45.2157 13.8705 45.3722 15.6055 45.4787C17.571 45.5994 29.2468 45.5682 34.2587 45.429C36.0855 45.3782 36.515 45.3475 37.2339 45.2162C38.8046 44.9294 40.0876 44.4796 41.1718 43.8357C41.7661 43.4828 42.2148 43.1315 42.715 42.6276C43.4893 41.8476 44.011 41.0421 44.4957 39.8782C45.0724 38.4933 45.2503 37.5295 45.4426 34.7508C45.6453 31.8198 45.6753 20.4089 45.4916 16.0729C45.375 13.3201 45.0457 11.3563 44.4659 9.95551C44.2551 9.44613 43.8591 8.74296 43.559 8.34501C42.8579 7.41534 41.8795 6.5465 40.9126 5.99496C39.4084 5.13684 37.4572 4.67269 34.913 4.56774C33.3547 4.50344 31.8457 4.48905 26.0617 4.48337C22.6872 4.48006 19.6041 4.48041 19.2103 4.48414ZM37.9983 8.64294C36.9596 8.75802 36.063 9.38171 35.5944 10.3152C35.0152 11.4686 35.2238 12.8831 36.1098 13.8105C36.7992 14.5321 37.8014 14.8796 38.7591 14.7289C40.5016 14.4548 41.6507 12.7988 41.2958 11.0732C41.0464 9.86097 40.0934 8.91912 38.8757 8.68161C38.627 8.63309 38.2408 8.61608 37.9983 8.64294ZM24.1359 12.286C23.1519 12.3698 22.3182 12.5178 21.5064 12.753C20.7262 12.9791 20.1872 13.1864 19.4572 13.5413C18.131 14.1859 17.0718 14.9371 16.0162 15.9817C13.8488 18.1263 12.5419 20.9013 12.2697 23.9367C12.2215 24.4739 12.2159 25.4921 12.2582 26.0106C12.464 28.5312 13.368 30.8616 14.9112 32.8497C15.7673 33.9527 16.8855 34.9835 18.0375 35.7319C19.55 36.7145 21.248 37.3707 23.001 37.65C23.7634 37.7715 23.9812 37.7863 25 37.7866C26.0463 37.7869 26.2999 37.7688 27.0987 37.637C28.0165 37.4854 28.9543 37.2205 29.8392 36.8627C30.239 36.7011 31.1477 36.2459 31.5182 36.0217C32.5202 35.4154 33.2108 34.8746 34.0383 34.0482C34.5581 33.5292 34.8885 33.1509 35.2792 32.6275C36.5301 30.9517 37.3698 28.9249 37.6634 26.8726C37.764 26.1696 37.7771 25.9542 37.7763 25.0107C37.7755 24.0456 37.7567 23.7748 37.639 23.0355C37.0279 19.197 34.6661 15.8194 31.2466 13.8935C29.7762 13.0654 28.224 12.5614 26.4691 12.3422C26.124 12.2992 25.8891 12.2886 25.1482 12.2832C24.6525 12.2795 24.197 12.2808 24.1359 12.286ZM24.2717 16.7062C24.2309 16.711 24.0921 16.7267 23.9631 16.7411C23.4449 16.7991 22.6707 16.983 22.1517 17.1712C19.5107 18.1293 17.5461 20.3147 16.8799 23.0355C16.712 23.721 16.6451 24.3031 16.6471 25.06C16.6507 26.4109 16.9336 27.6204 17.5195 28.7891C18.2175 30.1816 19.261 31.3253 20.5823 32.1462C21.6562 32.8134 22.8148 33.2077 24.1482 33.36C24.4975 33.3999 25.5255 33.4 25.8765 33.3602C27.8668 33.1346 29.5592 32.3286 30.9388 30.9493C31.564 30.3243 32.0139 29.7152 32.4258 28.936C32.9174 28.0062 33.2471 26.8893 33.3439 25.8254C33.377 25.4612 33.3768 24.639 33.3435 24.2576C33.138 21.9073 31.8973 19.7059 29.9874 18.3031C28.7759 17.4133 27.3506 16.8674 25.843 16.7159C25.6109 16.6926 24.4502 16.6854 24.2717 16.7062ZM0.00125889 24.8378C0.00125889 27.0173 0.0041723 27.909 0.00772764 26.8192C0.011283 25.7295 0.011283 23.9462 0.00772764 22.8565C0.0041723 21.7667 0.00125889 22.6583 0.00125889 24.8378Z" fill="#E60B80"/>
<path fill-rule="evenodd" clip-rule="evenodd" d="M18.1758 49.9265C12.3129 49.8001 10.1001 49.4256 7.44555 48.1102C6.17943 47.4828 5.40446 46.9218 4.3445 45.8654C2.68305 44.2096 1.93815 43.069 1.21597 41.0749C0.419701 38.8763 0.170902 36.864 0.0331816 31.5076C-0.0171857 29.5488 -0.00809985 20.2855 0.0461438 18.3109C0.176333 13.5703 0.319954 12.0292 0.791629 10.3114C1.33399 8.33632 2.20656 6.58877 3.3435 5.20058C3.9288 4.48596 4.69717 3.74578 5.41056 3.20937C5.4252 3.19838 5.4752 3.20046 5.52166 3.21401C5.72343 3.27287 6.52849 3.42921 7.02582 3.50609C8.61913 3.7524 10.2364 3.79591 11.7663 3.63362C12.1047 3.59772 12.5518 3.53427 12.7909 3.48822C12.8588 3.47513 13.0088 3.448 13.1242 3.42795C13.3895 3.38183 13.9323 3.2534 14.1365 3.18844C14.1704 3.17765 14.2815 3.14434 14.3834 3.11441C15.1021 2.90334 15.827 2.60496 16.4573 2.26074C16.7306 2.11154 17.1397 1.86014 17.2598 1.76771C17.3258 1.71689 17.406 1.65653 17.5646 1.53841C17.8983 1.28986 18.3434 0.855713 18.5815 0.546546C18.6286 0.485439 18.6733 0.429887 18.6809 0.423097C18.6885 0.416307 18.7469 0.337078 18.8106 0.247034L18.9265 0.0832919L20.13 0.0644521C21.5875 0.0416386 28.601 0.0665758 30.5059 0.101339C34.4543 0.173409 35.7297 0.217207 36.6907 0.31372C39.0218 0.547903 40.821 1.06138 42.8261 2.06475C43.9564 2.63034 44.293 2.88389 45.5137 4.08885C46.5478 5.10955 47.0963 5.7329 47.4806 6.32397C47.7289 6.7058 47.7966 6.82831 48.1323 7.50232C49.2299 9.70626 49.5278 11.0193 49.7389 14.5827C49.8206 15.962 49.952 20.1018 49.9669 21.7675L49.9724 22.3847L49.9862 21.8045C49.9937 21.4854 50 23.0075 50 25.187C50 27.3665 49.9942 28.9275 49.987 28.6559C49.9763 28.2547 49.9703 28.4052 49.9549 29.4584C49.9104 32.5054 49.8141 35.0615 49.6768 36.8406C49.6046 37.7758 49.5518 38.1613 49.4047 38.8282C48.8571 41.3112 47.9178 43.3165 46.5076 45.013C46.2215 45.3571 45.4978 46.0882 45.1593 46.375C44.3017 47.1016 43.5377 47.596 42.4187 48.1486C41.2291 48.7361 40.5372 49.0046 39.6247 49.233C38.1065 49.6129 36.2986 49.7683 32.4193 49.8522C28.9941 49.9263 20.2771 49.9717 18.1758 49.9265ZM19.2103 45.516C16.942 45.4945 14.8706 45.4348 14.1488 45.3701C10.7224 45.0629 8.98666 44.3508 7.22331 42.5288C6.20239 41.4739 5.68452 40.6418 5.26578 39.3834C5.04917 38.7325 4.79785 37.6713 4.7425 37.1739C4.54441 35.3935 4.38418 26.2047 4.43573 19.5824C4.4601 16.4514 4.49469 15.2959 4.59421 14.2865C4.88822 11.3047 5.55909 9.32675 6.76643 7.88208C7.81434 6.62818 9.44935 5.58896 11.0873 5.13577C11.1416 5.12074 11.2138 5.09968 11.2478 5.08899C11.3075 5.07015 11.3476 5.06035 11.6922 4.9803C12.5353 4.78449 13.8705 4.62793 15.6055 4.52144C17.571 4.40081 29.2468 4.43194 34.2587 4.57119C36.0855 4.62195 36.515 4.65267 37.2339 4.78397C38.8046 5.07081 40.0876 5.52061 41.1718 6.16445C41.7661 6.51734 42.2148 6.86865 42.715 7.37255C43.4893 8.15255 44.011 8.95808 44.4957 10.122C45.0724 11.5069 45.2503 12.4706 45.4426 15.2494C45.6453 18.1804 45.6753 29.5913 45.4916 33.9272C45.375 36.68 45.0457 38.6439 44.4659 40.0447C44.2551 40.554 43.8591 41.2572 43.559 41.6552C42.8579 42.5848 41.8795 43.4537 40.9126 44.0052C39.4084 44.8633 37.4572 45.3275 34.913 45.4324C33.3547 45.4967 31.8457 45.5111 26.0617 45.5168C22.6872 45.5201 19.6041 45.5198 19.2103 45.516ZM24.1359 37.7142C23.1519 37.6304 22.3182 37.4823 21.5064 37.2471C20.7262 37.0211 20.1872 36.8137 19.4572 36.4589C18.131 35.8143 17.0718 35.063 16.0162 34.0185C13.8488 31.8738 12.5419 29.0988 12.2697 26.0635C12.2215 25.5263 12.2159 24.508 12.2582 23.9896C12.464 21.469 13.368 19.1386 14.9112 17.1505C15.7673 16.0475 16.8855 15.0166 18.0375 14.2683C19.55 13.2857 21.248 12.6295 23.001 12.3502C23.7634 12.2287 23.9812 12.2138 25 12.2135C26.0463 12.2133 26.2999 12.2313 27.0987 12.3632C28.0165 12.5147 28.9543 12.7797 29.8392 13.1375C30.239 13.2991 31.1477 13.7542 31.5182 13.9784C32.5202 14.5847 33.2108 15.1255 34.0383 15.9519C34.5581 16.471 34.8885 16.8493 35.2792 17.3727C36.5301 19.0485 37.3698 21.0753 37.6634 23.1275C37.764 23.8306 37.7771 24.046 37.7763 24.9895C37.7755 25.9545 37.7567 26.2254 37.639 26.9647C37.0279 30.8031 34.6661 34.1808 31.2466 36.1067C29.7762 36.9348 28.224 37.4388 26.4691 37.6579C26.124 37.701 25.8891 37.7115 25.1482 37.717C24.6525 37.7207 24.197 37.7194 24.1359 37.7142ZM24.2717 33.294C24.2309 33.2892 24.0921 33.2735 23.9631 33.2591C23.4449 33.2011 22.6707 33.0172 22.1517 32.8289C19.5107 31.8708 17.5461 29.6854 16.8799 26.9647C16.712 26.2791 16.6451 25.697 16.6471 24.9401C16.6507 23.5892 16.9336 22.3798 17.5195 21.2111C18.2175 19.8186 19.261 18.6748 20.5823 17.854C21.6562 17.1868 22.8148 16.7925 24.1482 16.6402C24.4975 16.6003 25.5255 16.6002 25.8765 16.64C27.8668 16.8656 29.5592 17.6716 30.9388 19.0509C31.564 19.6759 32.0139 20.285 32.4258 21.0642C32.9174 21.9939 33.2471 23.1109 33.3439 24.1747C33.377 24.5389 33.3768 25.3612 33.3435 25.7425C33.138 28.0929 31.8973 30.2943 29.9874 31.6971C28.7759 32.5869 27.3506 33.1327 25.843 33.2843C25.6109 33.3076 24.4502 33.3148 24.2717 33.294ZM0.0012576 25.1623C0.0012576 22.9828 0.004171 22.0912 0.00772634 23.181C0.0112817 24.2707 0.0112817 26.0539 0.00772634 27.1437C0.004171 28.2334 0.0012576 27.3418 0.0012576 25.1623Z" fill="#E60B80"/>
</svg>
