<svg width="50" height="50" viewBox="0 0 50 50" fill="none" xmlns="http://www.w3.org/2000/svg">
<path fill-rule="evenodd" clip-rule="evenodd" d="M23.6293 0.0120719C23.5053 0.0199573 23.1165 0.052288 22.7653 0.0838671C15.2251 0.761672 8.38663 4.81363 4.2 11.0842C2.00503 14.3717 0.647494 18.0183 0.15312 21.9548C0.0242675 22.9808 0 23.4628 0 24.9963C0 25.9934 0.0178057 26.7438 0.0494366 27.0802C0.3683 30.4701 1.19878 33.381 2.68491 36.3174C6.49888 43.8535 13.8757 48.9515 22.2957 49.87C23.7123 50.0246 26.0338 50.0443 27.3296 49.913C30.5968 49.5817 33.4326 48.7609 36.2892 47.3198C43.2352 43.8157 48.1404 37.3054 49.5865 29.6712C49.9122 27.9517 49.9988 26.9806 50 25.0338C50.0009 23.4475 49.9817 23.0933 49.8276 21.8609C48.8035 13.6667 43.7499 6.47902 36.3643 2.71225C33.529 1.26622 30.5534 0.405515 27.2627 0.0796616C26.7003 0.0239758 24.1782 -0.0229617 23.6293 0.0120719ZM35.3192 14.5964C35.1782 14.6132 34.9451 14.6627 34.8013 14.7064C34.4845 14.8025 30.9627 16.251 27.3139 17.7859C26.7847 18.0085 19.9041 20.8461 11.8211 24.1754C10.8225 24.5867 9.88433 24.9838 9.73616 25.058C8.93386 25.4594 8.5408 25.9466 8.66056 26.3912C8.718 26.6043 8.89531 26.8556 9.06553 26.965C9.26884 27.0957 13.2935 28.4125 14.1805 28.6385C14.8866 28.8184 15.5941 28.8649 16.2111 28.7719C16.9366 28.6626 16.6724 28.8242 22.114 25.1612C27.9075 21.2612 28.1708 21.0867 28.6444 20.8343C29.3189 20.4747 29.8014 20.3541 29.9542 20.5068C30.1211 20.6736 29.9178 21.2215 29.4925 21.7514C29.0889 22.2542 25.1214 26.0678 22.0921 28.8647C21.3371 29.5619 21.1378 29.8077 21.0315 30.1732C20.927 30.5326 21.0427 30.9659 21.3401 31.3287C21.768 31.8507 23.8241 33.3046 28.4566 36.3612C29.9848 37.3695 30.5784 37.6742 31.4543 37.8997C31.9515 38.0277 32.4652 38.0153 32.7849 37.8676C33.221 37.666 33.582 37.2084 33.7706 36.6178C33.905 36.1969 36.3058 21.0895 36.775 17.7117C37.0122 16.0047 37.0192 15.6722 36.827 15.2258C36.6198 14.7443 36.0555 14.5088 35.3192 14.5964Z" fill="#E60B80"/>
</svg>
