<svg width="50" height="50" viewBox="0 0 50 50" fill="none" xmlns="http://www.w3.org/2000/svg">
<path fill-rule="evenodd" clip-rule="evenodd" d="M14.2023 0.0642798C8.70676 0.328352 5.40041 1.37876 3.33992 3.51515C1.20489 5.7288 0.248271 9.0677 0.0406331 15.0306C-0.0135443 16.5857 -0.0135443 33.4086 0.0406331 34.9638C0.247972 40.9177 1.20975 44.2774 3.3363 46.4761C5.43265 48.6437 8.7238 49.6748 14.3726 49.934C15.6289 49.9917 34.3683 49.9917 35.6262 49.9341C41.2812 49.675 44.5652 48.6461 46.6625 46.4763C48.5649 44.5083 49.5346 41.5772 49.8723 36.7739C49.9786 35.2613 50 33.2904 50 24.9972C50 16.7039 49.9786 14.733 49.8723 13.2204C49.5346 8.41714 48.5649 5.48602 46.6625 3.518C44.5681 1.35125 41.2897 0.322006 35.6475 0.0598075C34.5467 0.00865416 15.2763 0.012658 14.2023 0.0642798ZM9.3801 15.905C8.83185 15.9627 8.53367 16.1801 8.42838 16.599C8.19766 17.5169 9.39092 20.9289 10.9907 23.9256C12.237 26.2601 14.0821 29.0824 15.2414 30.4277C18.2533 33.9227 22.0149 35.8009 25.7022 35.6508C26.9539 35.5998 27.5074 35.4096 27.7323 34.9528C27.8317 34.7509 27.8318 34.7494 27.8531 32.5573L27.8744 30.3638L27.9809 30.1531C28.1398 29.8384 28.2591 29.7704 28.6827 29.7526C29.1195 29.7344 29.3948 29.8073 29.9089 30.0772C30.9205 30.6082 32.3069 31.8619 34.1868 33.9457C35.0814 34.9373 35.3922 35.2274 35.7753 35.4285C36.2256 35.6648 36.3403 35.6737 38.7141 35.6574C40.6871 35.6438 40.8823 35.636 41.0735 35.5633C41.6054 35.3609 41.819 34.8252 41.6278 34.1729C41.5241 33.819 41.1348 33.1029 40.7401 32.5399C39.9513 31.4147 38.515 29.7533 37.2021 28.4472C36.1897 27.44 35.9466 27.1612 35.7907 26.8286C35.5877 26.3954 35.6869 26.103 36.3677 25.1279C37.9611 22.8457 39.5251 20.3331 40.2693 18.8601C40.7773 17.8544 40.9881 17.2436 40.9908 16.7695C40.993 16.3821 40.939 16.2652 40.6745 16.0852C40.4042 15.9012 40.3043 15.8922 38.3308 15.8725C36.1455 15.8507 35.7653 15.8766 35.3632 16.0746C34.9654 16.2704 34.8132 16.4741 34.4327 17.3203C33.2172 20.0228 31.6454 22.6265 30.2868 24.1879C29.9213 24.6079 29.2927 25.1589 29.0021 25.3137C28.4893 25.587 28.1987 25.5297 27.995 25.115L27.8744 24.8694L27.8531 20.7379C27.8332 16.875 27.8268 16.5954 27.755 16.4361C27.6486 16.2 27.4895 16.0462 27.2602 15.9577C27.0801 15.8882 26.827 15.8824 23.9559 15.8824H20.8467L20.6723 15.9757C20.1597 16.25 20.0352 16.7911 20.3727 17.2788C20.4572 17.401 20.6605 17.683 20.8245 17.9056C21.2886 18.5355 21.5064 19.1431 21.5956 20.0561C21.6265 20.3721 21.6361 21.5128 21.624 23.4257C21.6042 26.5766 21.5986 26.6498 21.3618 26.8865C21.2625 26.9858 21.2157 26.999 20.9628 26.999C20.7025 26.999 20.6529 26.9839 20.4208 26.8341C18.909 25.8589 16.4357 21.6208 15.0112 17.5648C14.5633 16.2896 14.2934 15.9947 13.4892 15.9022C13.08 15.8552 9.8332 15.8574 9.3801 15.905Z" fill="#E60B80"/>
</svg>
